<svg width="110" height="40" viewBox="0 0 110 40" fill="none" xmlns="http://www.w3.org/2000/svg">
<g clip-path="url(#clip0)">
<path d="M70.2181 16.6207C71.6062 15.8725 72.3088 14.7366 72.3088 13.2402C72.3088 12.7741 72.2305 12.3251 72.0787 11.9056C71.9269 11.4861 71.7017 11.0985 71.4104 10.7501C71.1215 10.4042 70.7812 10.1148 70.4042 9.88906C69.9611 9.6192 69.4543 9.43521 68.8962 9.34198C68.3502 9.24876 67.6942 9.20215 66.9499 9.20215H61.9363C61.2312 9.20215 60.7073 9.36897 60.3817 9.69525C60.0561 10.0215 59.8896 10.5539 59.8896 11.2751V20.9262V22.9305V25.0034H61.9363H62.8323H66.666C67.4861 25.0034 68.2132 24.9617 68.8276 24.8808C69.4494 24.7998 70.0101 24.6551 70.4923 24.4515C71.2684 24.1105 71.8951 23.5732 72.3504 22.8569C72.8058 22.1405 73.0383 21.326 73.0383 20.4355C73.0359 18.598 72.0885 17.3175 70.2181 16.6207ZM63.317 11.8516H65.7137C66.8275 11.8516 67.6623 11.9768 68.196 12.2245C68.7003 12.4576 68.9451 12.9237 68.9451 13.6523C68.9451 13.9909 68.8643 14.3 68.6979 14.5772C68.4898 14.9623 68.196 15.2175 67.8019 15.3549C67.393 15.4972 66.8006 15.5683 66.0393 15.5683H63.3145V11.8516H63.317ZM66.5362 22.3466H63.3145V18.1148H66.4285C67.4861 18.1148 68.2866 18.284 68.808 18.6201C69.3172 18.9464 69.5645 19.464 69.5645 20.2C69.567 21.645 68.5755 22.3466 66.5362 22.3466Z" fill="#0057C2"/>
<path d="M46.8093 21.3113H49.8253H52.8414L54.1927 24.9716H57.7424L56.7559 22.4742C56.7069 22.3466 56.653 22.2092 56.5918 22.0571L52.2465 10.993C52.0849 10.5809 51.9111 10.2325 51.7275 9.95776C51.5365 9.67319 51.2844 9.44013 50.9735 9.2635C50.6626 9.08686 50.2758 8.99609 49.8253 8.99609C49.3749 8.99609 48.9881 9.08686 48.6772 9.2635C48.3687 9.44013 48.1141 9.67319 47.9232 9.95776C47.7395 10.2325 47.5657 10.5809 47.4042 10.993L43.0588 22.0571C42.9976 22.2092 42.9437 22.3466 42.8948 22.4742L41.9082 24.9716H45.4579L46.8093 21.3113ZM49.8082 12.8722L49.8278 12.9237L49.8473 12.8722L51.9233 18.6692H49.8302H47.7371L49.8082 12.8722Z" fill="#0057C2"/>
<path d="M85.4447 16.6207C86.8328 15.8725 87.5354 14.7366 87.5354 13.2402C87.5354 12.7741 87.457 12.3251 87.3053 11.9056C87.1535 11.4861 86.9283 11.0985 86.6369 10.7501C86.3481 10.4042 86.0078 10.1148 85.6308 9.88906C85.1877 9.6192 84.6809 9.43521 84.1227 9.34198C83.5768 9.24876 82.9207 9.20215 82.1765 9.20215H77.1628C76.4578 9.20215 75.9339 9.36897 75.6083 9.69525C75.2827 10.0215 75.1162 10.5539 75.1162 11.2751V20.9262V22.9305V25.0034H77.1628H78.0588H81.8925C82.7126 25.0034 83.4397 24.9617 84.0542 24.8808C84.676 24.7998 85.2366 24.6551 85.7189 24.4515C86.4949 24.1105 87.1216 23.5732 87.577 22.8569C88.0323 22.1405 88.2649 21.326 88.2649 20.4355C88.2649 18.598 87.3151 17.3175 85.4447 16.6207ZM78.5435 11.8516H80.9402C82.0541 11.8516 82.8889 11.9768 83.4226 12.2245C83.9269 12.4576 84.1717 12.9237 84.1717 13.6523C84.1717 13.9909 84.0909 14.3 83.9244 14.5772C83.7164 14.9623 83.4226 15.2175 83.0284 15.3549C82.6196 15.4972 82.0272 15.5683 81.2658 15.5683H78.5411V11.8516H78.5435ZM81.7628 22.3466H78.5411V18.1148H81.6551C82.7126 18.1148 83.5132 18.284 84.0346 18.6201C84.5438 18.9464 84.7911 19.464 84.7911 20.2C84.7935 21.645 83.802 22.3466 81.7628 22.3466Z" fill="#0057C2"/>
<path d="M7.49343 19.9987C5.25343 16.3704 4.05632 12.0772 4.86174 7.72519C5.13592 6.24098 6.32569 5.08796 7.81168 4.8549C9.14344 4.64392 10.1055 4.53843 11.9906 4.69544C11.31 5.82638 10.9085 6.95242 10.4874 8.04902C9.54493 8.01467 8.58528 8.20357 8.28172 8.29679C7.51547 11.1303 8.50449 15.9828 11.4863 19.9987H7.49343Z" fill="#0057C2"/>
<path d="M11.1436 11.1672C12.1203 7.01385 14.304 3.12793 17.9419 0.623172C19.1831 -0.230554 20.838 -0.203568 22.0547 0.684503C23.1441 1.47935 23.8981 2.0853 25.1221 3.53271C23.8442 3.85163 22.7646 4.3619 21.6924 4.83783C21.051 4.14602 20.2382 3.59895 19.9591 3.45175C17.418 4.91388 14.6933 9.04513 13.9686 13.9958L11.1436 11.1672Z" fill="#0057C2"/>
<path d="M19.9561 7.5095C23.5768 5.26479 27.8609 4.06516 32.2038 4.87228C33.6849 5.14704 34.8355 6.33931 35.0681 7.82842C35.2786 9.16298 35.3839 10.1271 35.2272 12.0161C34.0987 11.3341 32.975 10.9318 31.8807 10.5098C31.915 9.56531 31.7265 8.60365 31.6334 8.29944C28.8059 7.53158 23.9636 8.52269 19.9561 11.5107V7.5095Z" fill="#0057C2"/>
<path d="M28.7699 11.1672C32.9145 12.1461 36.7923 14.3344 39.2918 17.9799C40.1437 19.2237 40.1168 20.882 39.2306 22.1013C38.4374 23.193 37.8327 23.9486 36.3884 25.1752C36.0701 23.8946 35.5609 22.8127 35.086 21.7382C35.7764 21.0955 36.3223 20.281 36.4692 20.0013C35.0101 17.4549 30.8875 14.7244 25.9473 13.9983L28.7699 11.1672Z" fill="#0057C2"/>
<path d="M32.4219 19.9988C34.6619 23.6271 35.8591 27.9203 35.0536 32.2723C34.7794 33.7565 33.5897 34.9095 32.1037 35.1426C30.7719 35.3536 29.8098 35.4591 27.9248 35.3021C28.6054 34.1711 29.0069 33.0451 29.4279 31.9485C30.3704 31.9828 31.3301 31.7939 31.6337 31.7007C32.3999 28.8672 31.4109 24.0147 28.4291 19.9988H32.4219Z" fill="#0057C2"/>
<path d="M28.7696 28.8305C27.7928 32.9839 25.6091 36.8698 21.9713 39.3745C20.7301 40.2283 19.0752 40.2013 17.8585 39.3132C16.7691 38.5184 16.0151 37.9124 14.791 36.465C16.0689 36.1461 17.1485 35.6358 18.2208 35.1599C18.8622 35.8517 19.675 36.3988 19.954 36.546C22.4952 35.0838 25.2199 30.9526 25.9445 26.002L28.7696 28.8305Z" fill="#0057C2"/>
<path d="M19.9567 32.4907C16.336 34.7354 12.0518 35.9351 7.70891 35.128C6.22781 34.8532 5.07721 33.6609 4.84464 32.1718C4.63411 30.8372 4.52884 29.8731 4.68552 27.9841C5.81409 28.6661 6.93776 29.0685 8.03206 29.4904C7.99778 30.4349 8.18629 31.3966 8.27931 31.7008C11.1069 32.4686 15.9492 31.4775 19.9567 28.4895V32.4907Z" fill="#0057C2"/>
<path d="M11.1435 28.8305C6.99889 27.8516 3.12112 25.6633 0.621622 22.0178C-0.230314 20.774 -0.203385 19.1157 0.682824 17.8964C1.476 16.8047 2.08068 16.0491 3.52506 14.825C3.84331 16.1055 4.35251 17.1874 4.82744 18.2619C4.13708 18.9047 3.59115 19.7192 3.44427 19.9988C4.90333 22.5453 9.02591 25.2757 13.9662 26.0019L11.1435 28.8305Z" fill="#0057C2"/>
<path d="M41.9404 32.9102V32.0467H42.5329C42.67 32.0467 42.7752 32.0025 42.8511 31.9166C42.927 31.8308 42.9637 31.6934 42.9637 31.507V30.3171H43.8255V32.0467H45.0128V32.9102H43.8255V35.6676C43.8255 35.935 43.8891 36.1362 44.014 36.2736C44.1388 36.411 44.3175 36.4797 44.5476 36.4797C44.7704 36.4797 44.9981 36.4257 45.2282 36.3178V37.1813C44.9981 37.2892 44.7459 37.3432 44.4742 37.3432C43.9577 37.3432 43.566 37.2083 43.304 36.9384C43.0421 36.6686 42.9099 36.2638 42.9099 35.7216V32.9102H41.9404V32.9102Z" fill="#3BA6DE"/>
<path d="M50.9468 36.3153C50.7314 36.6023 50.4352 36.8477 50.0631 37.0439C49.6885 37.2426 49.265 37.3408 48.7901 37.3408C48.2931 37.3408 47.8402 37.223 47.4265 36.985C47.0128 36.7471 46.6872 36.4208 46.4497 36.0062C46.2122 35.5916 46.0947 35.1353 46.0947 34.6397C46.0947 34.1442 46.2122 33.6879 46.4448 33.2782C46.6774 32.8685 46.9956 32.5422 47.3947 32.2994C47.7937 32.0589 48.2221 31.9363 48.6848 31.9363C49.1671 31.9363 49.6004 32.0467 49.9847 32.265C50.3691 32.4858 50.6702 32.7876 50.8905 33.1727C51.1109 33.5579 51.2186 33.9921 51.2186 34.4754C51.2186 34.5686 51.2137 34.6569 51.2014 34.7403C51.1892 34.8237 51.177 34.8973 51.1647 34.9611H47.0666C47.1033 35.2359 47.1988 35.4861 47.3579 35.7167C47.5171 35.9473 47.7203 36.1313 47.9724 36.2687C48.2246 36.4061 48.4963 36.4748 48.7925 36.4748C49.1304 36.4748 49.4339 36.4012 49.7032 36.254C49.9725 36.1068 50.1904 35.9277 50.3569 35.7192L50.9468 36.3153ZM50.3005 34.154C50.2418 33.894 50.1414 33.6634 49.9994 33.4622C49.855 33.261 49.6714 33.0991 49.4437 32.9814C49.2185 32.8612 48.9639 32.8023 48.6824 32.8023C48.4008 32.8023 48.1487 32.8612 47.921 32.9814C47.6933 33.0991 47.5097 33.261 47.3653 33.4622C47.2208 33.6634 47.1205 33.894 47.0642 34.154H50.3005Z" fill="#3BA6DE"/>
<path d="M57.0396 36.2613C56.7948 36.5631 56.4815 36.8207 56.0971 37.0292C55.7128 37.2377 55.2892 37.3432 54.829 37.3432C54.3467 37.3432 53.9061 37.223 53.5021 36.9801C53.0982 36.7397 52.7799 36.4134 52.5425 36.0013C52.305 35.5916 52.1875 35.1353 52.1875 34.6397C52.1875 34.1442 52.305 33.6879 52.5425 33.2782C52.7799 32.8685 53.1006 32.5422 53.5021 32.2994C53.9036 32.0589 54.3467 31.9363 54.829 31.9363C55.2892 31.9363 55.7054 32.0344 56.08 32.2331C56.4545 32.4318 56.7556 32.6747 56.9858 32.9617L56.3395 33.6094C56.173 33.3861 55.96 33.1948 55.6981 33.0378C55.4361 32.8783 55.1472 32.7998 54.829 32.7998C54.5279 32.7998 54.2439 32.8832 53.9771 33.0476C53.7102 33.2144 53.4997 33.4377 53.3406 33.7173C53.1814 33.9995 53.1031 34.3037 53.1031 34.6373C53.1031 34.9685 53.1814 35.2751 53.3406 35.5573C53.4997 35.8394 53.7102 36.0626 53.9771 36.227C54.2439 36.3938 54.5279 36.4748 54.829 36.4748C55.1448 36.4748 55.441 36.3963 55.7128 36.2368C55.9869 36.0773 56.2122 35.8884 56.3933 35.6652L57.0396 36.2613Z" fill="#3BA6DE"/>
<path d="M60.6536 32.8022C60.3647 32.8022 60.1077 32.8685 59.8776 33.0034C59.6474 33.1359 59.4687 33.3223 59.339 33.5603C59.2092 33.7982 59.1456 34.0681 59.1456 34.3698V37.2352H58.2275V29.6694H59.1456V32.7826H59.1554C59.3218 32.5446 59.5446 32.3459 59.8237 32.1815C60.1028 32.0172 60.4161 31.9387 60.7613 31.9387C61.1701 31.9387 61.5349 32.0294 61.8556 32.2134C62.1763 32.3974 62.4236 32.6599 62.5998 33.0034C62.7761 33.3468 62.8642 33.7467 62.8642 34.2079V37.2352H61.9486V34.2079C61.9486 33.9258 61.8923 33.6805 61.7822 33.467C61.6696 33.2536 61.5178 33.0917 61.3244 32.9764C61.1285 32.8611 60.9058 32.8022 60.6536 32.8022Z" fill="#3BA6DE"/>
<path d="M68.637 31.9387C69.0385 31.9387 69.4008 32.0246 69.7215 32.1988C70.0422 32.3729 70.292 32.6109 70.4707 32.9176C70.6494 33.2242 70.74 33.5652 70.74 33.9381V37.2353H69.8219V36.5533H69.8121C69.6457 36.7765 69.4204 36.9629 69.1316 37.115C68.8427 37.2671 68.5171 37.3407 68.1499 37.3407C67.7974 37.3407 67.4864 37.2721 67.2172 37.1347C66.9479 36.9973 66.7398 36.8133 66.5905 36.5827C66.4436 36.3521 66.3701 36.0994 66.3701 35.8271C66.3701 35.3953 66.4999 35.0445 66.7594 34.7796C67.0189 34.5146 67.391 34.3404 67.8806 34.2595L69.8219 33.9357V33.9258C69.8219 33.7173 69.7705 33.526 69.6701 33.3542C69.5698 33.1825 69.4278 33.0451 69.2442 32.9495C69.0606 32.8538 68.8574 32.8047 68.6346 32.8047C68.3531 32.8047 68.0911 32.8734 67.8463 33.0108C67.6015 33.1482 67.3959 33.3125 67.2318 33.5088L66.6394 32.9151C66.8548 32.6403 67.1364 32.4097 67.4816 32.2233C67.8267 32.0319 68.2111 31.9387 68.637 31.9387ZM68.2576 36.5312C68.544 36.5312 68.8084 36.46 69.0459 36.3153C69.2833 36.1706 69.4718 35.9767 69.6114 35.7314C69.7509 35.4861 69.8219 35.2113 69.8219 34.9096V34.6937L68.1499 34.9636C67.883 35.0077 67.6725 35.1034 67.5183 35.2555C67.364 35.4076 67.2857 35.5793 67.2857 35.7731C67.2857 35.9105 67.3224 36.0356 67.3983 36.1509C67.4742 36.2662 67.5844 36.357 67.7337 36.4257C67.883 36.4968 68.0569 36.5312 68.2576 36.5312Z" fill="#3BA6DE"/>
<path d="M76.8873 36.2613C76.6425 36.5631 76.3291 36.8207 75.9448 37.0292C75.5604 37.2377 75.1369 37.3432 74.6766 37.3432C74.1944 37.3432 73.7537 37.223 73.3498 36.9801C72.9458 36.7397 72.6276 36.4134 72.3901 36.0013C72.1527 35.5916 72.0352 35.1353 72.0352 34.6397C72.0352 34.1442 72.1527 33.6879 72.3901 33.2782C72.6276 32.8685 72.9483 32.5422 73.3498 32.2994C73.7513 32.0589 74.1944 31.9363 74.6766 31.9363C75.1369 31.9363 75.5531 32.0344 75.9276 32.2331C76.3022 32.4318 76.6033 32.6747 76.8334 32.9617L76.1871 33.6094C76.0206 33.3861 75.8077 33.1948 75.5457 33.0378C75.2838 32.8783 74.9949 32.7998 74.6766 32.7998C74.3755 32.7998 74.0916 32.8832 73.8247 33.0476C73.5579 33.2144 73.3473 33.4377 73.1882 33.7173C73.0291 33.9995 72.9507 34.3037 72.9507 34.6373C72.9507 34.9685 73.0291 35.2751 73.1882 35.5573C73.3473 35.8394 73.5579 36.0626 73.8247 36.227C74.0916 36.3938 74.3755 36.4748 74.6766 36.4748C74.9925 36.4748 75.2887 36.3963 75.5604 36.2368C75.8346 36.0773 76.0598 35.8884 76.241 35.6652L76.8873 36.2613Z" fill="#3BA6DE"/>
<path d="M79.9076 31.9387C80.309 31.9387 80.6714 32.0246 80.9921 32.1988C81.3128 32.3729 81.5625 32.6109 81.7412 32.9176C81.9199 33.2242 82.0105 33.5652 82.0105 33.9381V37.2353H81.0924V36.5533H81.0826C80.9162 36.7765 80.6909 36.9629 80.4021 37.115C80.1132 37.2671 79.7876 37.3407 79.4204 37.3407C79.0679 37.3407 78.757 37.2721 78.4877 37.1347C78.2184 36.9973 78.0103 36.8133 77.861 36.5827C77.7141 36.3521 77.6406 36.0994 77.6406 35.8271C77.6406 35.3953 77.7704 35.0445 78.0299 34.7796C78.2894 34.5122 78.6615 34.3404 79.1511 34.2595L81.0924 33.9357V33.9258C81.0924 33.7173 81.041 33.526 80.9407 33.3542C80.8403 33.1801 80.6983 33.0451 80.5147 32.9495C80.3311 32.8538 80.1279 32.8047 79.9051 32.8047C79.6236 32.8047 79.3616 32.8734 79.1168 33.0108C78.872 33.1482 78.6664 33.3125 78.5024 33.5088L77.9099 32.9151C78.1253 32.6403 78.4069 32.4097 78.7521 32.2233C79.0972 32.0319 79.4816 31.9387 79.9076 31.9387ZM79.5306 36.5312C79.817 36.5312 80.0814 36.46 80.3188 36.3153C80.5563 36.1706 80.7448 35.9767 80.8843 35.7314C81.0239 35.4861 81.0949 35.2113 81.0949 34.9096V34.6937L79.4228 34.9636C79.156 35.0077 78.9455 35.1034 78.7912 35.2555C78.637 35.4076 78.5587 35.5793 78.5587 35.7731C78.5587 35.9105 78.5954 36.0356 78.6713 36.1509C78.7472 36.2662 78.8573 36.357 79.0067 36.4257C79.1535 36.4968 79.3274 36.5312 79.5306 36.5312Z" fill="#3BA6DE"/>
<path d="M85.7856 31.9387C86.1822 31.9387 86.5322 32.0196 86.8383 32.1815C87.1443 32.3435 87.3817 32.5446 87.5555 32.7826H87.5653V29.6694H88.4834V37.2352H87.5653V36.4992H87.5555C87.3817 36.7372 87.1418 36.9359 86.8334 37.1003C86.5249 37.2622 86.1748 37.3432 85.788 37.3432C85.3425 37.3432 84.9287 37.2254 84.5468 36.9923C84.1649 36.7593 83.8638 36.4355 83.6411 36.0258C83.4183 35.6161 83.3057 35.1549 83.3057 34.6421C83.3057 34.1319 83.4183 33.6707 83.6411 33.2585C83.8638 32.8488 84.1649 32.525 84.5468 32.2919C84.9263 32.054 85.34 31.9387 85.7856 31.9387ZM84.2212 34.6397C84.2212 34.993 84.2971 35.307 84.4489 35.5866C84.6007 35.8663 84.8039 36.0822 85.0585 36.2417C85.3131 36.4011 85.5922 36.4796 85.8933 36.4796C86.1944 36.4796 86.4735 36.4011 86.7281 36.2417C86.9827 36.0822 87.1859 35.8663 87.3377 35.5866C87.4895 35.3094 87.5629 34.993 87.5629 34.6397C87.5629 34.2864 87.487 33.9724 87.3377 33.6927C87.1859 33.4155 86.9827 33.1972 86.7281 33.0377C86.4735 32.8783 86.1944 32.7998 85.8933 32.7998C85.5922 32.7998 85.3131 32.8783 85.0585 33.0377C84.8039 33.1972 84.6007 33.4155 84.4489 33.6927C84.2971 33.9724 84.2212 34.2864 84.2212 34.6397Z" fill="#3BA6DE"/>
<path d="M94.6841 36.3153C94.4687 36.6023 94.1725 36.8477 93.8004 37.0439C93.4258 37.2426 93.0023 37.3408 92.5274 37.3408C92.0304 37.3408 91.5775 37.223 91.1638 36.985C90.7501 36.7471 90.4245 36.4208 90.187 36.0062C89.9495 35.5916 89.832 35.1353 89.832 34.6397C89.832 34.1442 89.9495 33.6879 90.1821 33.2782C90.4147 32.8685 90.7329 32.5422 91.132 32.2994C91.531 32.0589 91.9594 31.9363 92.4197 31.9363C92.9019 31.9363 93.3352 32.0467 93.7196 32.265C94.1039 32.4858 94.4051 32.7876 94.6254 33.1727C94.8457 33.5579 94.9534 33.9921 94.9534 34.4754C94.9534 34.5686 94.9485 34.6569 94.9363 34.7403C94.9265 34.8237 94.9118 34.8973 94.8996 34.9611H90.8015C90.8382 35.2359 90.9337 35.4861 91.0928 35.7167C91.2519 35.9473 91.4551 36.1313 91.7073 36.2687C91.9594 36.4061 92.2312 36.4748 92.5274 36.4748C92.8652 36.4748 93.1688 36.4012 93.4381 36.254C93.7074 36.1068 93.9252 35.9277 94.0917 35.7192L94.6841 36.3153ZM94.0354 34.154C93.9766 33.894 93.8763 33.6634 93.7343 33.4622C93.5898 33.261 93.4062 33.0991 93.1786 32.9814C92.9509 32.8612 92.6987 32.8023 92.4172 32.8023C92.1357 32.8023 91.8835 32.8612 91.6559 32.9814C91.4282 33.0991 91.2446 33.261 91.1001 33.4622C90.9557 33.6634 90.8553 33.894 90.799 34.154H94.0354Z" fill="#3BA6DE"/>
<path d="M98.4597 32.8023C98.2222 32.8023 98.0043 32.866 97.806 32.9912C97.6077 33.1163 97.451 33.3003 97.336 33.5358C97.2209 33.7737 97.1622 34.051 97.1622 34.3674V37.2328H96.2441V32.0442H97.1622V32.7262H97.172C97.3091 32.503 97.5 32.3165 97.7497 32.1644C97.997 32.0123 98.2883 31.9387 98.6188 31.9387C99.0203 31.9387 99.3654 32.027 99.6494 32.2037C99.9334 32.3803 100.144 32.5937 100.281 32.8464H100.303C100.47 32.5937 100.707 32.3803 101.02 32.2037C101.334 32.027 101.701 31.9387 102.127 31.9387C102.487 31.9387 102.812 32.0295 103.109 32.2135C103.402 32.3975 103.637 32.6575 103.809 32.9912C103.98 33.3273 104.068 33.7149 104.068 34.154V37.2353H103.15V34.154C103.15 33.8719 103.099 33.629 102.998 33.4254C102.898 33.2193 102.759 33.0648 102.582 32.9617C102.406 32.8587 102.2 32.8047 101.963 32.8047C101.711 32.8047 101.483 32.8685 101.277 32.9936C101.072 33.1187 100.91 33.3027 100.793 33.5382C100.675 33.7762 100.614 34.0534 100.614 34.3699V37.2353H99.6959V34.154C99.6959 33.8866 99.6421 33.6511 99.5344 33.445C99.4266 33.2389 99.2773 33.0819 99.0864 32.9691C98.9003 32.8587 98.6898 32.8023 98.4597 32.8023Z" fill="#3BA6DE"/>
<path d="M105.956 39.5045C105.682 39.5045 105.432 39.4677 105.202 39.3965V38.533C105.388 38.6041 105.586 38.6409 105.794 38.6409C106.032 38.6409 106.225 38.5771 106.377 38.452C106.529 38.3269 106.659 38.1355 106.766 37.8853L107.036 37.2377L104.933 32.0491H105.905L107.457 36.0258H107.479L109.031 32.0491H110.003L107.684 37.9393C107.461 38.4864 107.217 38.8838 106.95 39.134C106.681 39.3793 106.35 39.5045 105.956 39.5045Z" fill="#3BA6DE"/>
</g>
<defs>
<clipPath id="clip0">
<rect width="110" height="40" fill="white"/>
</clipPath>
</defs>
</svg>
